<svg width="88" height="55" viewBox="0 0 88 55" fill="none" xmlns="http://www.w3.org/2000/svg">
    <path d="M51.9937 7.9753C48.984 8.61893 46.6205 9.81423 44.5709 11.7267C42.4474 13.7311 41.2288 15.6436 40.2871 18.4204C39.8808 19.6341 39.7701 19.7628 39.3084 19.818C38.496 19.9099 35.9663 20.572 34.4522 21.0869C27.5833 23.4223 21.6746 29.6747 19.7912 36.589C18.9788 39.6049 18.7757 43.9264 19.3296 46.4825C19.4219 46.9238 19.4589 47.3468 19.4219 47.4203C19.3665 47.4939 18.2586 47.3468 16.9661 47.0525C14.0302 46.4273 10.7804 46.0779 9.28479 46.2434C5.13022 46.6847 2.4713 49.3144 3.24682 52.2199C3.54226 53.3233 4.11466 54.0221 5.18562 54.5738C6.05346 55.0335 6.2935 55.0519 9.59869 55.1622C11.5375 55.2174 18.0555 55.2358 24.0935 55.2174C30.1499 55.199 39.807 55.1806 45.568 55.1806L56.056 55.1622L55.9267 54.5554C55.779 53.7646 55.5943 53.4152 54.8004 52.5509C53.8956 51.5579 52.9908 51.135 51.1997 50.8959C50.3688 50.7672 49.6487 50.6568 49.6118 50.6201C49.5564 50.5833 49.8149 50.2523 50.1842 49.8661C50.535 49.4983 50.9597 49.0018 51.1074 48.7627C51.2736 48.5421 51.7721 47.9352 52.2522 47.4387C53.0647 46.5744 53.157 46.5376 54.0618 46.556C54.9665 46.556 55.0773 46.5009 55.6497 45.8388C57.4223 43.7976 58.641 39.5313 58.641 35.4121C58.641 34.4743 58.5487 33.2238 58.4194 32.6537L58.2163 31.5871L57.5516 31.6975C57.1823 31.7526 56.7576 31.8078 56.5914 31.8078C56.3514 31.8078 56.2775 32.1204 56.1667 33.5732C55.9636 36.6258 54.9481 39.7704 53.4155 42.1426C52.3815 43.7792 49.5933 46.8503 47.7284 48.4501C46.7867 49.2592 45.808 50.1235 45.568 50.381C45.1802 50.7856 44.9402 50.8407 43.6661 50.9143C42.6321 50.9511 42.2074 50.9143 42.2074 50.7488C42.2074 50.6384 42.5582 49.9397 43.0014 49.2225C44.4416 46.8503 44.7001 46.0779 44.7001 44.2022C44.7001 42.6575 44.6448 42.4552 44.0169 41.168C42.2259 37.5637 38.3298 35.3753 32.6057 34.7869L31.2209 34.6398L32.5134 34.2168C33.3628 33.9226 34.4153 33.7571 35.597 33.6835C40.5087 33.4445 44.4786 35.7247 46.5466 39.9727C47.0082 40.8921 47.3775 41.7932 47.3775 41.9587C47.3775 42.1242 47.5991 42.5104 47.8576 42.823C48.8362 43.9815 50.1657 43.4115 51.1628 41.4254C51.6244 40.5243 51.7167 40.1014 51.7721 38.6119C51.9199 35.1363 51.1074 33.1686 47.6545 28.5897C45.9373 26.3278 45.1618 24.9118 45.1618 24.1027C45.1618 23.4039 45.9742 22.5764 47.396 21.8776C50.2765 20.4248 54.0433 20.4616 58.7149 21.9695C59.7304 22.3189 60.6352 22.558 60.6906 22.5028C60.7645 22.4661 60.8753 22.2086 60.9491 21.9328C61.1707 21.0133 62.6848 18.8066 63.7742 17.7952C64.3836 17.2435 65.5468 16.4528 66.4516 15.993C67.3379 15.5517 68.058 15.1471 68.058 15.1103C68.058 14.8897 65.5468 11.8922 64.8821 11.3038C63.5896 10.2004 61.4477 9.04188 59.5643 8.43503C58.0686 7.95691 57.4593 7.84658 55.502 7.79141C53.9879 7.75463 52.7877 7.8098 51.9937 7.9753ZM59.195 14.7977C59.8228 15.1287 60.1182 15.5885 60.1182 16.2689C60.1182 17.2987 59.2504 18.0159 57.9948 18.0159C56.6099 18.0159 55.8898 16.1769 56.813 15C57.2562 14.4299 58.3087 14.338 59.195 14.7977Z" fill="#EA0091"/>
    <path d="M68.4827 17.2619C66.5255 18.163 64.4944 20.1858 63.5342 22.1902C62.8695 23.5878 62.7587 24.213 63.1834 24.3234C65.1222 24.8751 71.1971 26.1071 73.7637 26.4749C78.7676 27.2105 83.5684 24.8199 84.2147 21.2708C84.3439 20.6455 84.2885 20.5352 83.6238 19.8732C82.8483 19.1008 81.685 18.6595 79.8755 18.4756C76.1456 18.0894 73.8006 17.7584 71.7695 17.3722C70.4954 17.1148 69.406 16.9125 69.3506 16.9125C69.2952 16.9125 68.9074 17.078 68.4827 17.2619Z" fill="#EA0091"/>
    <path d="M57.7362 26.5485C56.7945 26.8059 55.225 27.4128 54.2279 27.8909L52.4553 28.7552L53.4709 28.9207C55.1696 29.1965 58.7149 28.9391 60.3952 28.4242C62.0385 27.9277 63.3495 27.3944 63.885 26.9714C64.2358 26.714 64.1804 26.6956 63.2387 26.4933C61.1891 26.052 59.6012 26.0703 57.7362 26.5485Z" fill="#EA0091"/>
</svg>
    