<svg width="667" height="435" viewBox="0 0 667 435" fill="none" xmlns="http://www.w3.org/2000/svg">
    <path d="M438.667 0.466574C423.867 3.39991 412.133 9.53324 396.267 22.8666C378.933 37.3999 371.6 39.5332 354 34.8666C312.133 24.0666 283.2 26.0666 248.267 42.4666C234.8 48.5999 222.8 56.9999 210.267 68.8666C200.4 78.1999 184.533 96.4666 178.133 106.067C173.733 112.467 172 112.733 175.333 106.333C176.533 103.933 177.2 101.8 176.8 101.267C176.4 100.867 168.4 104.2 159.067 108.6C136.4 119.267 119.467 125.667 87.0667 135.8C72.2667 140.333 57.3333 145.667 53.7333 147.533C48 150.6 47.3333 151.533 47.3333 155.667C47.3333 164.2 58.1334 168.467 82.6667 169.933C97.7334 170.867 112.267 168.333 127.6 162.2C143.333 155.933 147.6 153.4 165.067 140.067L181.333 127.533V136.467C181.333 144.467 180.933 145.933 177.733 149.4C174.4 152.733 174 154.2 174.133 161.267C174.267 167.8 175.333 171.267 179.733 179.8C182.667 185.667 184.533 190.333 184 190.333C183.467 190.333 174 189.133 163.2 187.8C152.267 186.333 139.733 184.867 135.333 184.333C109.467 181.533 10.8 163.533 1.73335 160.067C0.266679 159.533 -0.133321 160.2 0.266679 163.133C0.666679 166.6 1.33335 167.133 8.00001 168.6C20.2667 171.4 84 183.267 95.3334 184.867C101.2 185.8 115.867 187.933 128 189.667C140.133 191.533 159.867 194.2 171.733 195.667C192.533 198.333 193.733 198.6 196.8 202.2C199.867 205.8 207.467 210.333 210.533 210.333C211.333 210.333 213.2 209.133 214.667 207.667C216.8 205.533 218 205.267 220 206.333C224.267 208.6 230.4 207.933 233.2 204.733C235.733 202.067 236.667 201.933 252.267 202.867C266.667 203.667 269.2 204.2 273.333 207C280.667 212.067 285.867 212.6 289.6 208.867L292.8 205.667L358.267 205.8L423.733 205.933L428 209C433.2 212.733 444.267 214.2 447.467 211.533C448.667 210.6 450.133 208.467 450.667 206.867C451.733 204.333 453.2 203.933 464.267 203.133C512 199.667 555.467 195.267 603.333 189C614.4 187.533 630.4 185.4 638.933 184.2C665.333 180.867 666 180.6 666.4 177.267C666.933 173.667 665.067 173.533 650 176.2C638 178.333 593.067 184.067 572 186.333C564.267 187.133 546.933 189 533.333 190.467C519.733 191.933 497.867 193.933 484.667 194.867L460.667 196.6L457.2 192.867C455.2 190.733 452.133 189 450.4 189C448.8 189 443.067 187.8 438 186.333C426.933 183.267 424.533 180.867 417.333 165.667C405.733 141.4 402.4 110.067 409.467 93.6666C411.067 90.0666 411.333 91.1332 412.133 107C412.667 116.467 413.067 124.867 413.2 125.533C413.2 126.333 415.2 123.933 417.467 120.467C423.733 110.467 434.4 100.733 444 96.1999L452.667 92.0666L474.667 92.3332C495.2 92.5999 497.067 92.8666 503.333 95.9332C507.067 97.7999 515.067 101 521.333 103.133C530.933 106.467 534.667 107 546 107C560.933 106.867 570.133 103.933 576.267 97.2666C580.8 92.3332 583.467 83.2666 581.867 78.5999C580.133 73.7999 576 72.0666 561.733 70.4666C542.667 68.4666 525.733 58.8666 520.133 46.9999C517.2 40.5999 514.133 38.3332 508.8 38.3332C503.467 38.3332 499.067 40.9999 495.2 46.4666C490.533 53.2666 487.467 53.7999 490.8 47.2666C493.467 42.1999 498.933 37.1332 503.6 35.5332C506 34.7332 508 33.6666 508 32.9999C508 30.4666 496.8 17.9332 489.733 12.7332C479.067 4.86657 467.333 0.866574 453.333 0.333241C447.067 0.0665742 440.533 0.199908 438.667 0.466574ZM481.733 33.1332C485.333 37.5332 484.667 42.8666 479.867 46.8666C475.467 50.5999 472.933 50.5999 467.067 46.8666C464.667 45.3999 464 43.6666 464 39.6666C464 29.9332 475.467 25.6666 481.733 33.1332ZM514.667 43.9332C516.133 45.5332 517.333 47.3999 517.333 47.9332C517.333 48.5999 520.4 52.3332 524 56.1999C533.6 66.3332 545.2 71.3999 562 72.8666C572.667 73.7999 575.333 74.4666 577.733 76.8666L580.667 79.7999L576 83.7999C557.467 99.7999 532.533 98.5999 498 79.9332C486.667 73.7999 485.067 71.5332 488.933 67.3999C490.4 65.6666 492 61.7999 492.4 58.5999C493.2 51.6666 496.133 46.9999 501.733 43.6666C507.333 40.1999 511.2 40.3332 514.667 43.9332ZM488 62.9999C488 63.2666 486.667 64.3332 485.067 65.1332C482.267 66.5999 482.133 66.5999 483.867 64.5999C485.6 62.4666 488 61.5332 488 62.9999ZM268.4 118.6C267.2 125.133 260.267 141.267 257.2 144.467C255.867 145.933 254.933 147.667 255.333 148.067C255.733 148.6 255.6 148.733 255.2 148.333C254.667 148.067 251.867 149.8 248.933 152.333C246 154.867 242.8 157 242 157C241.067 157 239.333 158.2 238 159.667C233.067 165.133 237.867 177.667 249.733 189.933L255.2 195.667H248.667C239.333 195.667 236 194.467 236 191.4C236 188.333 230.4 185.8 220.667 184.333C212.4 183.133 204 175.667 204 169.4C204 165.667 204.267 165.533 213.467 164.067C225.733 162.2 238.533 155.8 247.067 147.133C254.667 139.667 261.867 127.133 263.333 119.267C264 115.667 264.933 114.333 266.8 114.333C268.8 114.333 269.2 115 268.4 118.6ZM175.467 123.8C170.4 129.667 151.6 144.333 142.133 149.533C131.067 155.8 114.667 161.667 102.933 163.667C90.8 165.667 89.0667 164.6 99.4667 161.667C124.8 154.467 135.6 149 160.533 130.2C177.467 117.533 182.667 115.267 175.467 123.8ZM357.333 132.333C357.333 133 356.667 132.733 356 131.667C355.333 130.6 354.667 129 354.667 128.333C354.667 127.533 355.333 127.933 356 129C356.667 130.067 357.333 131.533 357.333 132.333ZM353.2 161.667C352.4 172.467 349.867 177 344.667 177C343.067 177 340.133 178.333 338.133 179.8C335.2 182.067 334.533 183.533 334.933 187.533C335.467 194.333 341.6 197.4 352.667 196.6C362.667 195.933 370.667 191.933 378.8 183.8L384.8 177.667L392.8 184.067C397.067 187.667 403.2 192.2 406.267 194.2L411.867 197.933L399.733 198.867C384.133 199.933 322.8 199.933 312.267 198.867C307.733 198.333 304.4 197.533 304.667 197C306.4 194.2 299.867 190.333 289.333 187.533C279.733 185 277.2 183.667 272.4 179C269.2 175.933 266.667 172.467 266.667 171.533C266.667 170.467 269.867 166.333 273.867 162.333L280.933 155L308.8 154.867C324.133 154.733 339.333 154.067 342.667 153.267C354.533 150.6 354.133 150.333 353.2 161.667ZM377.333 161.267C377.333 161.8 375.333 160.333 372.933 157.933C370.4 155.533 368.667 153.133 369.067 152.6C369.6 151.4 377.2 159.533 377.333 161.267Z" fill="#EA0091"/>
    <path d="M476.4 41.7998C475.467 44.1998 477.867 46.9998 479.867 45.7998C482.133 44.3332 481.6 39.6665 479.333 39.6665C478.133 39.6665 476.933 40.5998 476.4 41.7998Z" fill="#EA0091"/>
    <path d="M511.333 58.3333C510.4 59.9333 515.733 65.4 517.333 64.3333C519.067 63.2666 517.733 60.6 514.667 58.6C513.2 57.6666 511.867 57.5333 511.333 58.3333Z" fill="#EA0091"/>
    <path d="M558.667 78.1998C558.667 80.0665 563.733 81.3998 567.467 80.4665C569.333 79.9331 570.4 78.9998 570 78.3331C568.933 76.5998 558.667 76.5998 558.667 78.1998Z" fill="#EA0091"/>
    <path d="M578.933 218.6C577.2 220.733 576.533 252.866 577.067 317.933C577.333 367.933 577.333 369 580.133 370.333C582.267 371.533 583.6 371.4 586.133 369.666L589.333 367.666V293.933C589.333 238.333 588.933 219.8 587.733 218.6C585.6 216.466 580.667 216.6 578.933 218.6Z" fill="#EA0091"/>
    <path d="M211.467 228.333C211.067 229.533 210.667 269.4 210.667 316.867C210.667 382.2 211.067 403.533 212.267 404.733C214.133 406.6 218.533 406.867 220.933 405.267C223.6 403.667 224.133 371 222.933 294.333L222 227L217.2 226.6C213.733 226.333 212.133 226.733 211.467 228.333Z" fill="#EA0091"/>
    <path d="M420 248.867C419.2 250.6 418.667 274.067 418.667 315.933C418.667 372.067 418.933 380.733 420.8 383.4C423.333 387 427.467 387.267 429.333 383.8C430.8 381 431.333 252.2 429.867 248.467C428.667 245.4 421.733 245.667 420 248.867Z" fill="#EA0091"/>
    <path d="M473.733 249L470.667 250.2V314.2C470.667 378.2 470.667 378.2 473.467 379.8C475.6 380.867 477.2 380.867 479.467 379.8L482.667 378.333L483.067 333.4C483.467 263.533 483.2 251.267 480.4 249.267C477.867 247.4 477.733 247.4 473.733 249Z" fill="#EA0091"/>
    <path d="M4.26665 255.933C1.99998 258.2 1.99998 354.466 4.26665 356.733C6.26665 358.733 11.0666 358.733 13.0666 356.733C15.3333 354.466 15.3333 258.2 13.0666 255.933C12.1333 255 10.2666 254.333 8.66665 254.333C7.06665 254.333 5.19998 255 4.26665 255.933Z" fill="#EA0091"/>
    <path d="M90.9334 259.933C88.8001 262.066 88.5334 333.133 90.6667 337.133C92.2667 340.066 97.6001 340.466 99.8667 337.8C100.933 336.6 101.333 324.866 101.067 297.533L100.667 259L96.6667 258.6C94.4001 258.333 91.8667 259 90.9334 259.933Z" fill="#EA0091"/>
    <path d="M399.467 275.133C397.6 276.866 397.333 281.666 397.333 307C397.333 323.4 397.733 337.8 398.133 338.866C399.467 342.333 403.6 343.933 406.667 342.333C409.2 341 409.333 339.533 409.333 308.2V275.666L405.867 274.333C401.6 272.6 401.867 272.6 399.467 275.133Z" fill="#EA0091"/>
    <path d="M628.8 283.933C626.933 286.6 626.667 295.933 626.667 358.6C626.667 421.8 626.933 430.333 628.8 432.2C631.6 435.133 636.933 434.867 638.667 431.8C639.467 430.067 640 404.467 640 358.067C640 295.8 639.733 286.6 637.867 283.933C635.333 280.2 631.333 280.2 628.8 283.933Z" fill="#EA0091"/>
    <path d="M556 288.867C555.2 290.467 554.667 304.067 554.667 323.933C554.667 351.133 555.067 356.867 556.8 359.4C559.067 362.6 563.867 363.267 566.4 360.733C568.667 358.467 568.667 290.2 566.4 287.933C563.867 285.4 557.6 285.933 556 288.867Z" fill="#EA0091"/>
    <path d="M132.267 289.267C130 291.533 130 319.8 132.267 322.067C134.133 323.933 138.533 324.067 141.333 322.333C144.4 320.467 145.067 295.4 142.133 291C139.733 287.4 134.933 286.6 132.267 289.267Z" fill="#EA0091"/>
    <path d="M335.467 292.467C333.6 294.2 333.333 300.467 333.333 339.8C333.333 383.267 333.467 385.133 336 387.667C337.467 389.133 339.333 390.333 340 390.333C340.8 390.333 342.533 389.133 344 387.667C346.533 385.133 346.667 383.267 346.667 340.2C346.667 311.933 346.133 294.6 345.333 292.867C343.6 289.8 338.267 289.533 335.467 292.467Z" fill="#EA0091"/>
    <path d="M111.467 295.4C111.067 296.067 110.667 308.733 110.667 323.533C110.4 352.067 110.933 354.333 116.667 354.333C122.4 354.333 122.8 352.2 122.4 322.867L122 295L117.067 294.6C114.4 294.333 111.867 294.733 111.467 295.4Z" fill="#EA0091"/>
    <path d="M238.933 295.933C236.667 298.2 236.667 369.133 238.933 371.4C241.467 373.933 247.733 373.4 249.333 370.467C251.2 367 251.2 300.333 249.333 296.867C247.733 293.933 241.467 293.4 238.933 295.933Z" fill="#EA0091"/>
    <path d="M46.2666 296.467C45.7333 297 45.3333 321.267 45.3333 350.333C45.3333 389.667 45.7333 403.533 46.9333 404.733C49.0666 406.867 53.9999 406.733 55.8666 404.467C56.9333 403.267 57.1999 387.667 57.0666 349.533L56.6666 296.333L51.9999 295.933C49.3333 295.667 46.7999 295.933 46.2666 296.467Z" fill="#EA0091"/>
    <path d="M293.6 298.6C292.533 299.667 292 307.133 292 323.667C292 348.333 292.4 350.333 298 350.333C303.6 350.333 304 348.333 304 323.667C304 299 303.6 297 298 297C296.4 297 294.533 297.667 293.6 298.6Z" fill="#EA0091"/>
    <path d="M377.6 300.733C376.4 301.666 376 310.333 376.267 339.8L376.667 377.666L380.4 378.066C388 379 388 378.6 388 339.133C388 312.733 387.6 302.466 386.4 301.266C384.533 299.4 380.133 299.133 377.6 300.733Z" fill="#EA0091"/>
    <path d="M498.133 307.133C496.267 308.866 496 314.866 496 351.8C496 378.733 496.533 395.4 497.333 397.133C498.267 398.733 500.133 399.667 502.667 399.667C505.2 399.667 507.067 398.733 508 397.133C508.8 395.533 509.333 379 509.333 352.733C509.333 317 509.067 310.466 507.2 307.933C504.8 304.466 501.067 304.2 498.133 307.133Z" fill="#EA0091"/>
    <path d="M67.4666 315.133C62.5333 320.067 67.3333 328.867 74 327.133C75.8666 326.6 78.1333 324.867 78.9333 323C82 316.067 72.8 309.667 67.4666 315.133Z" fill="#EA0091"/>
    <path d="M152 318.2C151.333 319.667 150.667 328.733 150.667 338.333C150.667 347.933 151.333 357 152 358.467C153.6 361.267 158.667 361.8 161.067 359.4C163.333 357.133 163.333 319.533 161.067 317.267C158.667 314.867 153.6 315.4 152 318.2Z" fill="#EA0091"/>
    <path d="M536.267 317.267C535.2 318.333 534.667 324.867 534.667 337.933C534.667 356.6 534.667 357 537.867 359C540.4 360.733 541.733 360.867 543.867 359.8C546.267 358.467 546.533 356.733 546.933 340.067C547.467 318.333 546.933 315.667 541.6 315.667C539.6 315.667 537.2 316.333 536.267 317.267Z" fill="#EA0091"/>
    <path d="M600.4 318.467C597.333 319.533 597.333 319.933 597.333 341.4C597.333 365.8 598 368.067 605.067 365.533L608.667 364.333V341.8C608.667 320.467 608.533 319.267 606 318.333C604.533 317.8 602 317.8 600.4 318.467Z" fill="#EA0091"/>
    <path d="M274.133 324.467C272.4 326.067 272 329.933 272 344.467C272 360.6 272.267 362.6 274.667 365C277.867 368.2 278.533 368.2 282.4 365.533C285.2 363.667 285.333 362.6 285.333 345C285.333 325.4 284.4 322.333 278.667 322.333C277.333 322.333 275.2 323.267 274.133 324.467Z" fill="#EA0091"/>
    <path d="M447.467 325.667C446 329.667 446.533 348.333 448.267 350.067C450.4 352.2 455.333 352.067 457.2 349.8C458.267 348.6 458.667 343.667 458.4 336.067L458 324.333L453.2 323.933C449.733 323.667 448.133 324.067 447.467 325.667Z" fill="#EA0091"/>
    <path d="M355.2 331C350.533 338.2 357.6 346.467 364.667 341.8C366.933 340.333 368 338.467 368 335.667C368 327.933 359.333 324.733 355.2 331Z" fill="#EA0091"/>
    <path d="M190.4 333.667C187.867 339.267 190.4 344.2 196 344.733C201.2 345.267 204 342.6 204 337C204 332.333 201.733 330.333 196.4 330.333C192.933 330.333 191.6 331.133 190.4 333.667Z" fill="#EA0091"/>
    <path d="M313.333 336.866C311.333 340.866 311.733 344.333 314.533 346.866C318.133 350.2 322.933 349.133 325.067 344.6C326.667 341.4 326.533 340.466 324.8 337.533C322 333.533 315.467 333.133 313.333 336.866Z" fill="#EA0091"/>
    <path d="M648.267 335.933C644.4 339.8 647.467 349 652.667 349C658.8 349 661.733 342.867 658.667 336.867C657.067 333.933 650.8 333.4 648.267 335.933Z" fill="#EA0091"/>
    <path d="M24.2667 339.933C22.1334 342.067 22.1334 359.933 24.2667 362.067C25.2001 363 27.0667 363.667 28.6667 363.667C33.4667 363.667 34.6667 361 34.6667 351C34.6667 341 33.4667 338.333 28.6667 338.333C27.0667 338.333 25.2001 339 24.2667 339.933Z" fill="#EA0091"/>
    <path d="M172 343.533C171.2 345.133 170.667 358.067 170.667 376.2C170.667 405.267 170.8 406.2 173.467 408.2C176.4 410.2 179.867 409.667 181.6 407.133C183.333 404.6 182.8 344.333 181.067 342.6C178.667 340.2 173.6 340.733 172 343.533Z" fill="#EA0091"/>
    </svg>
    